<svg width="200" height="200" xmlns="http://www.w3.org/2000/svg"><g fill="none" fill-rule="evenodd"><path fill="none" d="M0 0h200v200H0z"/><path d="M133.655 143.594c-1.303-.872-2.605-1.733-3.917-2.605-2.742-1.811-5.494-3.633-8.235-5.444-2.429-1.606-4.857-3.212-7.276-4.818-.568-.372-1.126-.793-1.714-1.156a12.097 12.097 0 00-.597-.362c-.813-.46-1.714-.284-2.536.147l-1.763-1.077c1.822-2.203 2.742-4.602 2.752-7.011l.059-6.16v-.059c.02-4.25-2.762-8.519-8.363-11.809-11.241-6.6-29.68-6.786-40.96-.401-5.621 3.182-8.47 7.403-8.53 11.643l-.058 6.218c-.06 4.27 2.702 8.568 8.294 11.848 10.86 6.375 28.603 6.698 40.03.872.04.02.078.059.118.078l4.318 2.624c.098 1.058.617 1.988 1.44 2.654l22.688 12.75c.587.323 1.39.244 2.242-.304 1.694-1.087 3.006-3.643 2.918-5.66-.029-.98-.382-1.635-.91-1.968z" fill="#CACFD2" fill-rule="nonzero" opacity=".32"/><path d="M63.993 104.112c9.577-5.415 25.235-5.259 34.782.342 3.76 2.214 6.002 4.946 6.776 7.775 1.273-4.318-.95-8.95-6.737-12.347-9.547-5.602-25.205-5.758-34.782-.343-5.807 3.28-8.098 7.873-6.923 12.21.832-2.82 3.114-5.503 6.884-7.637z" fill="#D6DDE1" fill-rule="nonzero"/><path d="M110.232 109.948c-1.42-2.056-3.545-3.986-6.326-5.69 3.887 5.22 2.135 11.457-5.278 15.58-9.655 5.366-25.313 5.22-34.782-.343-7.305-4.289-8.9-10.595-4.867-15.746-2.85 1.665-5.023 3.584-6.492 5.64l-2.262-.019-.068 6.688c-.069 4.603 2.908 9.224 8.93 12.76 12.005 7.05 31.854 7.246 44.094.43 6.14-3.417 9.225-7.98 9.254-12.583l.069-6.688-2.272-.03z" fill="#DDE0E2" fill-rule="nonzero"/><path d="M98.804 102.192c-9.547-5.6-25.205-5.757-34.782-.342-9.576 5.415-9.664 14.394-.195 19.956 9.469 5.562 25.126 5.71 34.781.343 9.656-5.366 9.744-14.346.196-19.957z" fill="#AEE1E5" fill-rule="nonzero" opacity=".48"/><path d="M105.825 111.054c-.44-3.211-2.78-6.365-7.03-8.852-9.548-5.6-25.206-5.758-34.782-.342-4.28 2.418-6.669 5.552-7.149 8.764" stroke="#969EB2" stroke-width=".2" opacity=".46"/><path d="M103.495 97.257c-12.103-7.109-31.952-7.305-44.094-.43-12.143 6.873-12.26 18.252-.245 25.293 12.015 7.04 31.854 7.246 44.094.43 12.24-6.815 12.358-18.193.245-25.293zm-4.867 22.571c-9.655 5.366-25.313 5.22-34.782-.343-9.469-5.561-9.38-14.54.196-19.956 9.577-5.415 25.234-5.258 34.782.343 9.547 5.6 9.46 14.59-.196 19.956z" fill="#F1F4F5" fill-rule="nonzero"/><path d="M78.113 104.787c-2.399-1.41-6.335-1.449-8.744-.088s-2.429 3.614-.049 5.014c2.38 1.4 6.316 1.44 8.744.088 2.429-1.351 2.458-3.613.05-5.014z" fill="#FFF" fill-rule="nonzero" opacity=".46"/><g fill-rule="nonzero"><path d="M106.237 122.247c-.568-.362-1.362-.323-2.223.235-1.606 1.028-2.86 3.457-2.771 5.386.048 1.018.45 1.694 1.067 1.968l6.63 4.024 3.916-7.569-6.62-4.044z" fill="#F9FBFC"/><path d="M114.736 125.606a10.938 10.938 0 00-.636-.382c-1.783-1-3.907.773-5.024 2.046-1.243 1.43-2.262 3.369-2.115 5.317.088 1.166.656 2.194 1.557 2.928l24.422 13.72 4.563-8.53c-1.41-.93-2.81-1.86-4.22-2.79-2.958-1.96-5.915-3.908-8.862-5.866-2.615-1.724-5.22-3.457-7.834-5.18-.627-.421-1.234-.862-1.85-1.263z" fill="#DDE0E2"/><path d="M134.996 140.96c-1.821 1.165-3.231 3.917-3.133 6.1.098 2.184 1.664 3.016 3.496 1.841 1.83-1.175 3.24-3.917 3.133-6.1-.098-2.184-1.674-3.007-3.496-1.841z" fill="#C3C8CA"/></g></g></svg>